<svg width="59" height="61" viewBox="0 0 59 61" fill="none" xmlns="http://www.w3.org/2000/svg">
<path d="M19 23.5L9 17.5V6.5L19 0L30 6.5V17.5L19 23.5Z" fill="#F29C1F"/>
<path d="M40.1305 54.3915C36.7447 51.0057 36.7447 45.5163 40.1305 42.1305L46.261 36L52.3915 42.1305C55.7773 45.5163 55.7773 51.0057 52.3915 54.3915V54.3915C49.0058 57.7773 43.5163 57.7773 40.1305 54.3915V54.3915Z" fill="#F0C419"/>
<path d="M39.5 24L30 18V6.5L40.5 0L50.5 6.5V18L39.5 24Z" fill="#E57E25"/>
<path d="M29 17L19 22.5V35.5L29 41.5L40 35.5V23.5L29 17Z" fill="#F0C419"/>
<path d="M9 17L0 23.5V35.5L9 42L19 35.5V23.5L9 17Z" fill="#D25627"/>
<path d="M30 52.5L19.5 59L9 52.5V41.5L19 35.5L30 41.5V52.5Z" fill="#F29C1F"/>
</svg>
