<svg width="31" height="31" viewBox="0 0 31 31" fill="none" xmlns="http://www.w3.org/2000/svg">
<path d="M28.7857 0H2.20737C0.989509 0 0 1.00335 0 2.23504V28.765C0 29.9967 0.989509 31 2.20737 31H28.7857C30.0036 31 31 29.9967 31 28.765V2.23504C31 1.00335 30.0036 0 28.7857 0ZM9.3692 26.5714H4.77455V11.7772H9.37612V26.5714H9.3692ZM7.07187 9.7567C5.59799 9.7567 4.40781 8.5596 4.40781 7.09263C4.40781 5.62567 5.59799 4.42857 7.07187 4.42857C8.53884 4.42857 9.73594 5.62567 9.73594 7.09263C9.73594 8.56652 8.54576 9.7567 7.07187 9.7567V9.7567ZM26.5922 26.5714H21.9975V19.375C21.9975 17.6589 21.9629 15.4516 19.6103 15.4516C17.2161 15.4516 16.8493 17.3199 16.8493 19.2504V26.5714H12.2547V11.7772H16.6625V13.7978H16.7248C17.3406 12.6353 18.8422 11.4105 21.0772 11.4105C25.7272 11.4105 26.5922 14.4759 26.5922 18.4616V26.5714V26.5714Z" fill="#CA6215"/>
</svg>
