<svg width="31" height="31" viewBox="0 0 31 31" fill="none" xmlns="http://www.w3.org/2000/svg">
<path d="M27.6786 0H3.32143C1.48772 0 0 1.48772 0 3.32143V27.6786C0 29.5123 1.48772 31 3.32143 31H27.6786C29.5123 31 31 29.5123 31 27.6786V3.32143C31 1.48772 29.5123 0 27.6786 0ZM19.1882 26.5507C18.6069 26.6545 18.3924 26.2946 18.3924 25.9971C18.3924 25.6234 18.4062 23.7136 18.4062 22.1705C18.4062 21.0911 18.0464 20.406 17.6243 20.0462C20.1846 19.7625 22.8833 19.4096 22.8833 14.9879C22.8833 13.7286 22.4335 13.0989 21.7 12.2893C21.8176 11.9917 22.2121 10.767 21.5824 9.17545C20.6205 8.8779 18.4201 10.4141 18.4201 10.4141C17.5067 10.158 16.5172 10.0266 15.5415 10.0266C14.5658 10.0266 13.5763 10.158 12.6629 10.4141C12.6629 10.4141 10.4625 8.8779 9.50067 9.17545C8.87098 10.76 9.25848 11.9848 9.38304 12.2893C8.64955 13.0989 8.30357 13.7286 8.30357 14.9879C8.30357 19.3888 10.8846 19.7625 13.4449 20.0462C13.1127 20.3437 12.8152 20.8558 12.7114 21.5893C12.054 21.8868 10.3725 22.3989 9.3692 20.6275C8.73951 19.5342 7.60469 19.4442 7.60469 19.4442C6.48371 19.4304 7.52857 20.15 7.52857 20.15C8.27589 20.496 8.80179 21.8246 8.80179 21.8246C9.47299 23.8797 12.6837 23.1877 12.6837 23.1877C12.6837 24.1496 12.6975 25.7134 12.6975 25.9971C12.6975 26.2946 12.49 26.6545 11.9018 26.5507C7.33482 25.0214 4.13795 20.6759 4.13795 15.5969C4.13795 9.24464 8.99554 4.42165 15.3478 4.42165C21.7 4.42165 26.8482 9.24464 26.8482 15.5969C26.8551 20.6759 23.7551 25.0283 19.1882 26.5507ZM12.4 22.3228C12.2685 22.3504 12.144 22.2951 12.1301 22.2051C12.1163 22.1013 12.2062 22.0114 12.3377 21.9837C12.4692 21.9699 12.5937 22.0252 12.6076 22.1152C12.6283 22.2051 12.5384 22.2951 12.4 22.3228ZM11.7426 22.2605C11.7426 22.3504 11.6388 22.4266 11.5004 22.4266C11.3482 22.4404 11.2444 22.3643 11.2444 22.2605C11.2444 22.1705 11.3482 22.0944 11.4866 22.0944C11.6181 22.0806 11.7426 22.1567 11.7426 22.2605ZM10.7946 22.1844C10.767 22.2743 10.6286 22.3158 10.5109 22.2743C10.3795 22.2467 10.2895 22.1429 10.3172 22.0529C10.3449 21.9629 10.4833 21.9214 10.6009 21.9491C10.7393 21.9906 10.8292 22.0944 10.7946 22.1844ZM9.94353 21.8107C9.88125 21.8868 9.74978 21.873 9.64598 21.7692C9.54219 21.6792 9.51451 21.5478 9.5837 21.4855C9.64598 21.4094 9.77746 21.4232 9.88125 21.527C9.97121 21.617 10.0058 21.7554 9.94353 21.8107ZM9.31384 21.181C9.25156 21.2225 9.13393 21.181 9.05781 21.0772C8.9817 20.9734 8.9817 20.8558 9.05781 20.8074C9.13393 20.7451 9.25156 20.7935 9.31384 20.8973C9.38996 21.0011 9.38996 21.1257 9.31384 21.181V21.181ZM8.86406 20.5098C8.80179 20.5721 8.69799 20.5375 8.62187 20.4683C8.54576 20.3783 8.53192 20.2746 8.5942 20.2261C8.65647 20.1638 8.76027 20.1984 8.83638 20.2676C8.9125 20.3576 8.92634 20.4614 8.86406 20.5098ZM8.40045 19.9978C8.37277 20.06 8.28281 20.0739 8.2067 20.0254C8.11674 19.9839 8.07522 19.9078 8.1029 19.8455C8.13058 19.804 8.2067 19.7833 8.29665 19.8179C8.38661 19.8663 8.42812 19.9424 8.40045 19.9978Z" fill="#CA6215"/>
</svg>
